<?xml version="1.0" encoding="UTF-8"?>
<svg width="106px" height="28px" viewBox="0 0 106 28" version="1.1" xmlns="http://www.w3.org/2000/svg" xmlns:xlink="http://www.w3.org/1999/xlink">
    <!-- Generator: Sketch 52.5 (67469) - http://www.bohemiancoding.com/sketch -->
    <title>Logo</title>
    <desc>Created with Sketch.</desc>
    <g id="--Symbols--" stroke="none" stroke-width="1" fill="none" fill-rule="evenodd">
        <g id="Navigaion/Main" transform="translate(-150.000000, -30.000000)">
            <g id="Group-9">
                <g id="Logo/Black" transform="translate(150.000000, 30.000000)">
                    <g id="Group">
                        <path d="M9.10079722,23.3078829 C6.85144321,23.3078829 4.74005925,22.7273951 2.90722289,21.7133626 L0.984258182,25.0752976 C3.38495979,26.4078016 6.15206995,27.1709724 9.10079722,27.1709724 C12.0495245,27.1709724 14.8166347,26.4078016 17.2173363,25.0752976 L15.2942582,21.7133626 C13.4614218,22.7273951 11.3501512,23.3078829 9.10079722,23.3078829" id="Fill-29" fill="#0BA0BE"></path>
                        <path d="M9.07073176,14.4319398 C6.16791893,14.4319398 3.93761091,12.050574 3.93761091,9.13618374 C3.93761091,6.22167967 6.16791893,3.84042764 9.07073176,3.84042764 C12.0090291,3.84042764 14.1684815,6.22167967 14.1684815,9.13618374 C14.1684815,12.050574 12.0090291,14.4319398 9.07073176,14.4319398 Z M20.4179467,4.12418374 L20.4179467,0.0266227642 C18.717412,0.0266227642 17.9343724,0.131338211 17.4726205,0.343614634 C17.0110954,0.555777236 17.0763959,0.545647154 16.6475211,0.863891057 C16.2556045,1.15470407 15.5930761,1.84833008 15.165335,2.32535447 C13.5690997,0.892460163 11.4429778,0.0374357724 9.07073176,0.0374357724 C3.93761091,0.0374357724 0.00812855615,3.98259024 0.00812855615,9.13618374 C0.00812855615,14.2541512 3.93761091,18.2705577 9.07073176,18.2705577 C14.1684815,18.2705577 18.133335,14.2541512 18.133335,9.13618374 C18.133335,7.26177724 17.6068494,5.54865528 16.6941157,4.12566341 C16.6966098,4.12532195 16.7011446,4.12418374 16.7027318,4.12418374 L20.4179467,4.12418374 Z" id="Fill-30" fill="#000000"></path>
                        <path d="M92.4949198,7.35630569 C92.5268898,6.90876098 92.6413925,6.59154146 92.8363872,6.13454959 C93.0716278,5.58467967 93.406293,5.07783415 93.8310866,4.62869593 C94.2539529,4.18149268 94.7810053,3.81225691 95.3975059,3.53077724 C96.0102652,3.25123252 96.6949005,3.1095252 97.4329326,3.1095252 C98.1978332,3.1095252 98.873739,3.22846829 99.4414909,3.4632813 C100.004028,3.69570407 100.479611,4.02123252 100.854409,4.42985041 C101.22966,4.84040325 101.51501,5.3296065 101.703089,5.88414309 C101.868834,6.3747122 101.97268,6.77593171 102.012133,7.35630569 L92.4949198,7.35630569 Z M105.944222,9.17846829 C105.944222,8.07030569 105.792081,6.96419187 105.491767,5.89028943 C105.188391,4.80785041 104.690248,3.82033821 104.011055,2.95484228 C103.3288,2.08718374 102.44781,1.37546016 101.392571,0.839476423 C100.332798,0.301557724 99.0245198,0.0288422764 97.5037882,0.0288422764 C96.2241925,0.0288422764 95.0225947,0.262858537 93.931985,0.724630894 C92.8423957,1.18674472 91.8902096,1.83450081 91.1019551,2.65025691 C90.3148342,3.46498862 89.6888107,4.43793171 89.2417968,5.54267967 C88.7938759,6.64674472 88.567138,7.85825691 88.567138,9.14318374 C88.567138,10.4258341 88.7753968,11.6346146 89.1857925,12.7366309 C89.5973219,13.8427447 90.1936428,14.8170537 90.957523,15.6328098 C91.7234439,16.4509561 92.6710952,17.0997366 93.7733818,17.5615089 C94.8754417,18.022826 96.1181925,18.2569561 97.4679636,18.2569561 C100.725508,18.2569561 103.296717,17.0628585 105.110734,14.7072163 L105.27013,14.5002894 L102.454839,12.3389398 L102.296235,12.5351675 C101.703429,13.2671512 101.045435,13.8643707 100.340507,14.3098667 C99.653831,14.7435252 98.8305455,14.9633138 97.8930973,14.9633138 C97.1932706,14.9633138 96.5065947,14.8485821 95.8523422,14.6218504 C95.2013775,14.3969398 94.6203615,14.0771024 94.1260727,13.6706472 C93.6357519,13.2685171 93.2348791,12.7748748 92.9338845,12.2040618 C92.6740428,11.7115577 92.5262096,11.031135 92.4928791,10.4426797 L105.944222,10.4426797 L105.944222,9.17846829 Z" id="Fill-31" fill="#000000"></path>
                        <polygon id="Fill-32" fill="#000000" points="79.430142 12.9418163 74.804234 0.43776748 70.739049 0.43776748 77.3899538 17.8524016 81.4712372 17.8524016 88.1911837 0.43776748 84.1261121 0.43776748"></polygon>
                        <path d="M41.3064428,14.4319398 C38.4036299,14.4319398 36.1733219,12.050574 36.1733219,9.13618374 C36.1733219,6.2217935 38.4036299,3.84042764 41.3064428,3.84042764 C44.2447401,3.84042764 46.4041925,6.2217935 46.4041925,9.13618374 C46.4041925,12.050574 44.2447401,14.4319398 41.3064428,14.4319398 M41.3064428,0.0374357724 C36.1733219,0.0374357724 32.2438396,3.98259024 32.2438396,9.13618374 C32.2438396,14.2541512 36.1733219,18.2705577 41.3064428,18.2705577 C46.4041925,18.2705577 50.369046,14.2541512 50.369046,9.13618374 C50.369046,3.98259024 46.4041925,0.0374357724 41.3064428,0.0374357724" id="Fill-33" fill="#000000"></path>
                        <path d="M61.5265833,14.4322813 C58.6238839,14.4322813 56.3938026,12.0510293 56.3938026,9.13686667 C56.3938026,6.22259024 58.6238839,3.84145203 61.5265833,3.84145203 C64.4646539,3.84145203 66.6238796,6.22259024 66.6238796,9.13686667 C66.6238796,12.0510293 64.4646539,14.4322813 61.5265833,14.4322813 M61.5265833,0.0386878049 C56.3938026,0.0386878049 52.464547,3.98361463 52.464547,9.13686667 C52.464547,14.2544927 56.3938026,18.2705577 61.5265833,18.2705577 C66.6238796,18.2705577 70.5886197,14.2544927 70.5886197,9.13686667 C70.5886197,3.98361463 66.6238796,0.0386878049 61.5265833,0.0386878049" id="Fill-34" fill="#000000"></path>
                        <path d="M28.4825741,0.343626016 C28.0209356,0.555788618 28.0863495,0.545658537 27.6573613,0.863902439 C27.3951388,1.05853659 27.0113848,1.43403252 26.6579003,1.80395122 L26.6579003,0.434227642 L22.9167239,0.434227642 L22.9167239,17.8523902 L26.6579003,17.8523902 L26.6579003,4.46713821 C26.9715923,4.36060163 27.6484051,4.12419512 27.712572,4.12419512 L31.427787,4.12419512 L31.427787,0.0266341463 C29.7272522,0.0266341463 28.9442126,0.131349593 28.4825741,0.343626016" id="Fill-35" fill="#000000"></path>
                    </g>
                </g>
            </g>
        </g>
    </g>
</svg>